<?xml version="1.0" encoding="UTF-8"?>
<svg version="1.1" xmlns="http://www.w3.org/2000/svg" width="512" height="512">
<path d="M0 0 C1.60035422 -0.0041767 3.20070547 -0.00965605 4.80105126 -0.01631981 C9.18335038 -0.03074914 13.56546103 -0.02653756 17.94777036 -0.019153 C22.67999099 -0.0144174 27.41217108 -0.02693466 32.14437866 -0.03717041 C41.40928486 -0.05435615 50.67412324 -0.05519887 59.93904124 -0.04995751 C67.47068094 -0.04591409 75.00230062 -0.0473614 82.53393936 -0.05270576 C84.14260656 -0.0538284 84.14260656 -0.0538284 85.78377209 -0.05497371 C87.96253124 -0.05650521 90.14129039 -0.05804355 92.32004954 -0.05958868 C112.74671682 -0.07331295 133.17334579 -0.06787657 153.6000122 -0.05640347 C172.28030838 -0.04647156 190.9605055 -0.05941118 209.64078639 -0.08333766 C228.82987532 -0.10773033 248.01891812 -0.11733608 267.20802224 -0.11068493 C277.97797344 -0.10719304 288.74784846 -0.10942281 299.51778793 -0.12693596 C308.6861467 -0.14166003 317.85437566 -0.14229066 327.02273189 -0.12486505 C331.69855374 -0.11635434 336.37414371 -0.11420727 341.04995346 -0.1295166 C345.33466755 -0.14337151 349.61895127 -0.13859029 353.90364052 -0.11927737 C355.44931617 -0.1155195 356.99502636 -0.11843316 358.54067121 -0.12888902 C372.57547047 -0.21704024 382.7715551 2.48240532 393.13284302 12.12986755 C403.51344673 22.88997721 404.41834501 35.9171756 404.39546204 50.07000732 C404.39772759 51.11053621 404.39999315 52.1510651 404.40232736 53.22312516 C404.40863043 56.69115557 404.40784038 60.15914652 404.40701294 63.62718201 C404.41000672 66.12132314 404.41340975 68.61546382 404.41719055 71.10960388 C404.42509671 77.17037904 404.42824421 83.23113883 404.42880293 89.29191772 C404.42927927 94.22152145 404.4313399 99.15112199 404.43450356 104.08072472 C404.44330272 118.07783479 404.44792403 132.07493721 404.44717308 146.07205007 C404.44711315 147.20221392 404.44711315 147.20221392 404.447052 148.35520935 C404.44701112 149.10957888 404.44697024 149.86394841 404.44692812 150.64117762 C404.44652175 162.86394669 404.45609086 175.08668495 404.47019037 187.30944512 C404.48457596 199.88004813 404.49145937 212.45063612 404.49059659 225.02124757 C404.4902654 232.0705271 404.49297838 239.11977431 404.50377464 246.1690464 C404.51386615 252.80026731 404.51352205 259.43143181 404.50625801 266.06266022 C404.50521451 268.49097735 404.50756107 270.91929877 404.51361847 273.34760857 C404.52137454 276.67328566 404.51666968 279.99872952 404.50898743 283.32440186 C404.51413099 284.2755005 404.51927455 285.22659914 404.52457398 286.20651895 C404.45431212 300.0579656 401.95050811 312.19883129 392.26956177 322.5712738 C381.45243017 332.35720025 369.32457397 333.8374135 355.26516724 333.8200531 C353.77601822 333.82908593 352.2868766 333.83941685 350.79774475 333.85093689 C346.78398208 333.87835465 342.77036106 333.88777053 338.75651693 333.89379096 C334.55110224 333.90321456 330.34579171 333.92942098 326.14044189 333.95379639 C318.18991107 333.99735592 310.23940059 334.0259675 302.28878701 334.04911977 C293.23183519 334.07622819 284.17498872 334.12013608 275.11811233 334.16540849 C256.49938037 334.25810361 237.88062054 334.3298534 219.26174927 334.38768005 C221.8510945 340.35739057 224.539824 346.27461125 227.30007935 352.16722107 C228.22553663 354.1733205 229.12836789 356.19002863 230.0071106 358.21702576 C234.30681484 369.3208369 234.30681484 369.3208369 242.31552124 377.5428009 C246.61098628 378.96208227 250.76211585 379.13229647 255.24873352 379.19210815 C264.62005442 380.10256652 274.23278106 387.54366247 280.26174927 394.38768005 C287.25240398 403.62191084 291.36975805 413.42176799 291.44924927 425.07518005 C291.46342896 426.02779724 291.47760864 426.98041443 291.49221802 427.9618988 C291.26174927 430.38768005 291.26174927 430.38768005 289.26174927 432.38768005 C286.3605313 432.59000098 283.55420342 432.66565752 280.65141296 432.65510559 C279.74935574 432.6596367 278.84729852 432.66416782 277.91790622 432.66883624 C274.87695181 432.68155779 271.83617471 432.6798549 268.79519653 432.6782074 C266.6224545 432.68418778 264.44971461 432.69099218 262.27697754 432.69856262 C256.36178263 432.71627892 250.44664553 432.72092034 244.53142667 432.72219419 C239.60071158 432.72408932 234.67001007 432.73144232 229.73930019 432.73853838 C218.11095269 432.75484105 206.48263618 432.75970559 194.85427856 432.75828552 C182.84136274 432.75708334 170.82865137 432.77819626 158.81577832 432.80977285 C148.51682929 432.83588398 138.21793907 432.846655 127.91895717 432.8453747 C121.76127666 432.84486358 115.60375554 432.85062936 109.44610786 432.8717308 C103.65703938 432.89102655 97.86828377 432.89129722 92.07920456 432.87669754 C89.95027017 432.87459759 87.82131663 432.87938026 85.69241524 432.89141846 C82.79425971 432.90674954 79.89719948 432.89764366 76.99906921 432.88215637 C76.1492724 432.8924435 75.29947559 432.90273062 74.42392737 432.91332948 C68.78034916 432.84631512 68.78034916 432.84631512 66.21542263 430.57796669 C64.76906398 427.2561375 65.29329353 424.23843234 65.82424927 420.76268005 C65.92648804 420.04845886 66.02872681 419.33423767 66.13406372 418.59837341 C68.36137958 404.39140627 75.77299956 393.95005012 87.26174927 385.38768005 C92.34100329 382.02685628 97.23416148 379.26716763 103.431427 379.21385193 C109.21011791 379.08743287 114.8535602 378.8765919 119.07531738 374.51332092 C123.25906005 368.554154 126.02709763 361.86245669 128.88674927 355.20018005 C129.81020089 353.18754153 130.73983941 351.17772957 131.67581177 349.17088318 C133.94364719 344.27353769 136.1320545 339.34653807 138.26174927 334.38768005 C137.10329058 334.38548021 137.10329058 334.38548021 135.92142868 334.38323593 C117.09033503 334.34611142 98.25942602 334.28702209 79.42847824 334.20377731 C70.32179232 334.16404427 61.21519209 334.13162273 52.10842896 334.11668396 C44.16679427 334.10363762 36.2253486 334.07659723 28.28382039 334.03306699 C24.08258811 334.01051894 19.88158838 333.99476535 15.68029022 333.9957962 C11.71733191 333.99654678 7.75488635 333.97843824 3.79206085 333.94651222 C2.3458236 333.93806697 0.89952846 333.93622632 -0.54672241 333.94187737 C-14.4775341 333.98901545 -25.59188465 331.45040788 -35.64059448 321.50486755 C-44.69249307 311.74489233 -47.04590495 301.44222759 -47.00567627 288.40800476 C-47.01020738 287.32341122 -47.0147385 286.23881769 -47.01940691 285.12135768 C-47.03203614 281.49817405 -47.03043147 277.87514103 -47.02877808 274.25193787 C-47.03476424 271.64956978 -47.04156999 269.04720346 -47.0491333 266.44483948 C-47.06570932 260.11588504 -47.07124131 253.78696787 -47.07235806 247.45799354 C-47.07331016 242.31049384 -47.07742857 237.16300638 -47.08375931 232.01551056 C-47.10136259 217.40377493 -47.11059963 202.79206862 -47.10909836 188.18032232 C-47.10901845 187.3934574 -47.10893854 186.60659249 -47.1088562 185.79588318 C-47.10877444 185.00805139 -47.10869268 184.22021959 -47.10860844 183.40851411 C-47.10779584 170.645689 -47.12692928 157.88298198 -47.15513293 145.12019101 C-47.18390035 131.9981674 -47.1976711 118.87620131 -47.19594538 105.75414538 C-47.1952828 98.39405752 -47.20071698 91.03409348 -47.22230148 83.67403412 C-47.24247877 76.74974182 -47.24180024 69.8257145 -47.22726822 62.90140915 C-47.22518045 60.36504865 -47.22987903 57.82867177 -47.24198914 55.29233932 C-47.25749142 51.81968518 -47.24809949 48.34792566 -47.23272705 44.87528992 C-47.24301418 43.88070873 -47.2533013 42.88612753 -47.26390016 41.86140752 C-47.14566863 29.70682325 -42.93071717 19.34158055 -34.73825073 10.38768005 C-24.10611971 1.02250185 -13.68950288 -0.05819153 0 0 Z " fill="#FEFEFE" transform="translate(77.73825073242188,40.61231994628906)"/>
<path d="M0 0 C1.60035422 -0.0041767 3.20070547 -0.00965605 4.80105126 -0.01631981 C9.18335038 -0.03074914 13.56546103 -0.02653756 17.94777036 -0.019153 C22.67999099 -0.0144174 27.41217108 -0.02693466 32.14437866 -0.03717041 C41.40928486 -0.05435615 50.67412324 -0.05519887 59.93904124 -0.04995751 C67.47068094 -0.04591409 75.00230062 -0.0473614 82.53393936 -0.05270576 C84.14260656 -0.0538284 84.14260656 -0.0538284 85.78377209 -0.05497371 C87.96253124 -0.05650521 90.14129039 -0.05804355 92.32004954 -0.05958868 C112.74671682 -0.07331295 133.17334579 -0.06787657 153.6000122 -0.05640347 C172.28030838 -0.04647156 190.9605055 -0.05941118 209.64078639 -0.08333766 C228.82987532 -0.10773033 248.01891812 -0.11733608 267.20802224 -0.11068493 C277.97797344 -0.10719304 288.74784846 -0.10942281 299.51778793 -0.12693596 C308.6861467 -0.14166003 317.85437566 -0.14229066 327.02273189 -0.12486505 C331.69855374 -0.11635434 336.37414371 -0.11420727 341.04995346 -0.1295166 C345.33466755 -0.14337151 349.61895127 -0.13859029 353.90364052 -0.11927737 C355.44931617 -0.1155195 356.99502636 -0.11843316 358.54067121 -0.12888902 C372.57547047 -0.21704024 382.7715551 2.48240532 393.13284302 12.12986755 C403.51344673 22.88997721 404.41834501 35.9171756 404.39546204 50.07000732 C404.39772759 51.11053621 404.39999315 52.1510651 404.40232736 53.22312516 C404.40863043 56.69115557 404.40784038 60.15914652 404.40701294 63.62718201 C404.41000672 66.12132314 404.41340975 68.61546382 404.41719055 71.10960388 C404.42509671 77.17037904 404.42824421 83.23113883 404.42880293 89.29191772 C404.42927927 94.22152145 404.4313399 99.15112199 404.43450356 104.08072472 C404.44330272 118.07783479 404.44792403 132.07493721 404.44717308 146.07205007 C404.44711315 147.20221392 404.44711315 147.20221392 404.447052 148.35520935 C404.44701112 149.10957888 404.44697024 149.86394841 404.44692812 150.64117762 C404.44652175 162.86394669 404.45609086 175.08668495 404.47019037 187.30944512 C404.48457596 199.88004813 404.49145937 212.45063612 404.49059659 225.02124757 C404.4902654 232.0705271 404.49297838 239.11977431 404.50377464 246.1690464 C404.51386615 252.80026731 404.51352205 259.43143181 404.50625801 266.06266022 C404.50521451 268.49097735 404.50756107 270.91929877 404.51361847 273.34760857 C404.52137454 276.67328566 404.51666968 279.99872952 404.50898743 283.32440186 C404.51413099 284.2755005 404.51927455 285.22659914 404.52457398 286.20651895 C404.45431212 300.0579656 401.95050811 312.19883129 392.26956177 322.5712738 C381.45243017 332.35720025 369.32457397 333.8374135 355.26516724 333.8200531 C353.77601822 333.82908593 352.2868766 333.83941685 350.79774475 333.85093689 C346.78398208 333.87835465 342.77036106 333.88777053 338.75651693 333.89379096 C334.55110224 333.90321456 330.34579171 333.92942098 326.14044189 333.95379639 C318.18991107 333.99735592 310.23940059 334.0259675 302.28878701 334.04911977 C293.23183519 334.07622819 284.17498872 334.12013608 275.11811233 334.16540849 C256.49938037 334.25810361 237.88062054 334.3298534 219.26174927 334.38768005 C221.8510945 340.35739057 224.539824 346.27461125 227.30007935 352.16722107 C228.22553663 354.1733205 229.12836789 356.19002863 230.0071106 358.21702576 C234.30681484 369.3208369 234.30681484 369.3208369 242.31552124 377.5428009 C246.61098628 378.96208227 250.76211585 379.13229647 255.24873352 379.19210815 C264.62005442 380.10256652 274.23278106 387.54366247 280.26174927 394.38768005 C287.25240398 403.62191084 291.36975805 413.42176799 291.44924927 425.07518005 C291.46342896 426.02779724 291.47760864 426.98041443 291.49221802 427.9618988 C291.26174927 430.38768005 291.26174927 430.38768005 289.26174927 432.38768005 C286.3605313 432.59000098 283.55420342 432.66565752 280.65141296 432.65510559 C279.74935574 432.6596367 278.84729852 432.66416782 277.91790622 432.66883624 C274.87695181 432.68155779 271.83617471 432.6798549 268.79519653 432.6782074 C266.6224545 432.68418778 264.44971461 432.69099218 262.27697754 432.69856262 C256.36178263 432.71627892 250.44664553 432.72092034 244.53142667 432.72219419 C239.60071158 432.72408932 234.67001007 432.73144232 229.73930019 432.73853838 C218.11095269 432.75484105 206.48263618 432.75970559 194.85427856 432.75828552 C182.84136274 432.75708334 170.82865137 432.77819626 158.81577832 432.80977285 C148.51682929 432.83588398 138.21793907 432.846655 127.91895717 432.8453747 C121.76127666 432.84486358 115.60375554 432.85062936 109.44610786 432.8717308 C103.65703938 432.89102655 97.86828377 432.89129722 92.07920456 432.87669754 C89.95027017 432.87459759 87.82131663 432.87938026 85.69241524 432.89141846 C82.79425971 432.90674954 79.89719948 432.89764366 76.99906921 432.88215637 C76.1492724 432.8924435 75.29947559 432.90273062 74.42392737 432.91332948 C68.78034916 432.84631512 68.78034916 432.84631512 66.21542263 430.57796669 C64.76906398 427.2561375 65.29329353 424.23843234 65.82424927 420.76268005 C65.92648804 420.04845886 66.02872681 419.33423767 66.13406372 418.59837341 C68.36137958 404.39140627 75.77299956 393.95005012 87.26174927 385.38768005 C92.34100329 382.02685628 97.23416148 379.26716763 103.431427 379.21385193 C109.21011791 379.08743287 114.8535602 378.8765919 119.07531738 374.51332092 C123.25906005 368.554154 126.02709763 361.86245669 128.88674927 355.20018005 C129.81020089 353.18754153 130.73983941 351.17772957 131.67581177 349.17088318 C133.94364719 344.27353769 136.1320545 339.34653807 138.26174927 334.38768005 C137.10329058 334.38548021 137.10329058 334.38548021 135.92142868 334.38323593 C117.09033503 334.34611142 98.25942602 334.28702209 79.42847824 334.20377731 C70.32179232 334.16404427 61.21519209 334.13162273 52.10842896 334.11668396 C44.16679427 334.10363762 36.2253486 334.07659723 28.28382039 334.03306699 C24.08258811 334.01051894 19.88158838 333.99476535 15.68029022 333.9957962 C11.71733191 333.99654678 7.75488635 333.97843824 3.79206085 333.94651222 C2.3458236 333.93806697 0.89952846 333.93622632 -0.54672241 333.94187737 C-14.4775341 333.98901545 -25.59188465 331.45040788 -35.64059448 321.50486755 C-44.69249307 311.74489233 -47.04590495 301.44222759 -47.00567627 288.40800476 C-47.01020738 287.32341122 -47.0147385 286.23881769 -47.01940691 285.12135768 C-47.03203614 281.49817405 -47.03043147 277.87514103 -47.02877808 274.25193787 C-47.03476424 271.64956978 -47.04156999 269.04720346 -47.0491333 266.44483948 C-47.06570932 260.11588504 -47.07124131 253.78696787 -47.07235806 247.45799354 C-47.07331016 242.31049384 -47.07742857 237.16300638 -47.08375931 232.01551056 C-47.10136259 217.40377493 -47.11059963 202.79206862 -47.10909836 188.18032232 C-47.10901845 187.3934574 -47.10893854 186.60659249 -47.1088562 185.79588318 C-47.10877444 185.00805139 -47.10869268 184.22021959 -47.10860844 183.40851411 C-47.10779584 170.645689 -47.12692928 157.88298198 -47.15513293 145.12019101 C-47.18390035 131.9981674 -47.1976711 118.87620131 -47.19594538 105.75414538 C-47.1952828 98.39405752 -47.20071698 91.03409348 -47.22230148 83.67403412 C-47.24247877 76.74974182 -47.24180024 69.8257145 -47.22726822 62.90140915 C-47.22518045 60.36504865 -47.22987903 57.82867177 -47.24198914 55.29233932 C-47.25749142 51.81968518 -47.24809949 48.34792566 -47.23272705 44.87528992 C-47.24301418 43.88070873 -47.2533013 42.88612753 -47.26390016 41.86140752 C-47.14566863 29.70682325 -42.93071717 19.34158055 -34.73825073 10.38768005 C-24.10611971 1.02250185 -13.68950288 -0.05819153 0 0 Z M-29.33590698 23.40330505 C-34.42211897 30.60050753 -34.88727461 37.02987427 -34.85850525 45.53082275 C-34.85936127 46.4516716 -34.86021729 47.37252045 -34.86109924 48.3212738 C-34.86275477 51.41740349 -34.85723021 54.51347913 -34.85177612 57.60960388 C-34.85146981 59.8629821 -34.85160324 62.11636041 -34.85214138 64.36973858 C-34.85236731 70.40894815 -34.84656774 76.44813794 -34.83953094 82.48734283 C-34.83383974 88.15248681 -34.83356803 93.81762595 -34.83285522 99.48277283 C-34.82760606 116.05524453 -34.81364493 132.62771254 -34.80075073 149.20018005 C-34.78012573 186.22205505 -34.75950073 223.24393005 -34.73825073 261.38768005 C105.84174927 261.38768005 246.42174927 261.38768005 391.26174927 261.38768005 C391.36487427 223.97393005 391.46799927 186.56018005 391.57424927 148.01268005 C391.61976929 136.20051697 391.66528931 124.38835388 391.71218872 112.21824646 C391.72891121 101.62710936 391.72891121 101.62710936 391.7389679 91.03596497 C391.74362495 86.31961805 391.76235728 81.60355272 391.78962708 76.88728333 C391.82397193 70.86746909 391.83419604 64.84806317 391.82711065 58.82816005 C391.82859182 56.62132569 391.83847786 54.41447677 391.85782492 52.20772672 C392.06203384 35.09504559 392.06203384 35.09504559 383.82424927 20.51268005 C377.07125256 14.912634 371.41382345 12.14254625 362.56994247 12.12761784 C361.59408114 12.12190933 361.59408114 12.12190933 360.59850544 12.1160855 C358.42137299 12.10578982 356.24450226 12.10967206 354.06735229 12.11352539 C352.48949977 12.10907189 350.91164948 12.10375747 349.33380246 12.09765667 C344.99984467 12.08347979 340.6659586 12.08181332 336.33198094 12.08225358 C331.65698975 12.08060511 326.98202809 12.06753807 322.30705261 12.05606079 C312.08598848 12.03321456 301.86494511 12.02529068 291.64385891 12.02023435 C285.26129027 12.01697709 278.87872765 12.01045446 272.49616241 12.00323296 C254.82280547 11.98366804 237.14945413 11.96726302 219.47608566 11.96435642 C218.3452169 11.96416885 217.21434814 11.96398128 216.04921062 11.96378803 C213.75669336 11.96342178 211.4641761 11.96305808 209.17165884 11.96269692 C208.03365919 11.96251411 206.89565954 11.9623313 205.72317505 11.96214294 C204.01409103 11.96187212 204.01409103 11.96187212 202.27048007 11.96159583 C183.805932 11.95805374 165.34150053 11.93102872 146.87699291 11.89364506 C127.91740036 11.85556633 108.95786568 11.83619898 89.99823403 11.83589691 C79.35399662 11.83531227 68.70989833 11.82681565 58.06569672 11.79789925 C49.00262719 11.7733913 39.93974752 11.7660986 30.87665382 11.78114677 C26.253576 11.78831786 21.63087313 11.78744959 17.0078373 11.76473618 C12.77232893 11.74412628 8.5374833 11.74676505 4.30198196 11.76761102 C2.77305178 11.77110207 1.24407359 11.76621214 -0.28479365 11.75190658 C-12.47256244 11.64525224 -21.45011537 13.53214943 -29.33590698 23.40330505 Z " fill="#3A556A" transform="translate(77.73825073242188,40.61231994628906)"/>
<path d="M0 0 C2.53649965 -0.02038865 5.07283234 -0.03519611 7.609375 -0.046875 C8.67551025 -0.05630127 8.67551025 -0.05630127 9.76318359 -0.06591797 C30.64050404 -0.13782608 51.02346403 8.85534633 67 22 C67.98613281 22.81082031 68.97226562 23.62164062 69.98828125 24.45703125 C87.67427293 39.54975252 99.6591272 61.99325033 103 85 C104.73515066 115.47292618 98.37789179 142.12715047 78.2277832 165.49536133 C61.67358877 183.92751642 36.63205998 196.71856369 11.78369141 198.12548828 C-15.36107979 199.21522188 -39.4208806 191.79430338 -60.5 174.37109375 C-62.54548251 172.43108143 -64.33789383 170.49502538 -66.15625 168.35180664 C-66.95772461 167.40936852 -66.95772461 167.40936852 -67.77539062 166.44789124 C-68.17951172 165.97008713 -68.58363281 165.49228302 -69 165 C-68.15031143 164.36349014 -67.30062286 163.72698029 -66.42518616 163.07118225 C-55.5709951 154.86003971 -45.18410399 146.16010359 -35.0625 137.0625 C-34.25570297 136.33788071 -33.44890594 135.61326141 -32.61766052 134.86668396 C-10.94583429 115.15523424 2.27780082 97.42512994 3.92245293 67.54013252 C4.22322927 59.76202105 4.07929817 52.02463095 3.75 44.25 C3.70374859 43.14830097 3.65749718 42.04660194 3.60984421 40.9115181 C2.98120718 27.20679714 1.76995732 13.60279781 0 0 Z " fill="#98DA7C" transform="translate(342,77)"/>
<path d="M0 0 C1.97544548 -0.0076664 1.97544548 -0.0076664 3.99079895 -0.01548767 C7.57151355 -0.02876591 11.15212189 -0.02946895 14.73285627 -0.02692437 C17.73695316 -0.02584702 20.74102922 -0.03075739 23.7451216 -0.03552979 C30.84002563 -0.04658632 37.9348767 -0.04708418 45.02978516 -0.04101562 C52.31604498 -0.03497864 59.60211157 -0.04728869 66.88833845 -0.06858569 C73.17492337 -0.08627596 79.4614472 -0.09219142 85.74805605 -0.08894795 C89.48916874 -0.08714675 93.23014354 -0.08965359 96.97123337 -0.10366249 C100.49264877 -0.11635802 104.01376572 -0.11418782 107.53517723 -0.1012516 C109.42075271 -0.09780811 111.30633783 -0.10897668 113.19187927 -0.12081909 C129.06031405 -0.02442616 142.59250132 4.00453189 154.31103516 15.0090332 C162.74456303 24.23817691 167.48356939 35.46036419 167.56884766 47.9621582 C167.58302734 48.91477539 167.59720703 49.86739258 167.61181641 50.84887695 C167.38134766 53.2746582 167.38134766 53.2746582 165.38134766 55.2746582 C162.48012969 55.47697913 159.67380181 55.55263567 156.77101135 55.54208374 C155.86895413 55.54661485 154.9668969 55.55114597 154.03750461 55.55581439 C150.9965502 55.56853594 147.9557731 55.56683305 144.91479492 55.56518555 C142.74205289 55.57116593 140.569313 55.57797033 138.39657593 55.58554077 C132.48138102 55.60325707 126.56624392 55.60789849 120.65102506 55.60917234 C115.72030996 55.61106747 110.78960846 55.61842047 105.85889858 55.62551653 C94.23055108 55.6418192 82.60223457 55.64668374 70.97387695 55.64526367 C58.96096113 55.64406149 46.94824976 55.66517441 34.9353767 55.696751 C24.63642768 55.72286213 14.33753745 55.73363315 4.03855556 55.73235285 C-2.11912495 55.73184173 -8.27664607 55.73760751 -14.43429375 55.75870895 C-20.22336223 55.7780047 -26.01211784 55.77827537 -31.80119705 55.76367569 C-33.93013145 55.76157574 -36.05908498 55.76635841 -38.18798637 55.77839661 C-41.0861419 55.79372769 -43.98320213 55.78462181 -46.8813324 55.76913452 C-47.73112921 55.77942165 -48.58092602 55.78970877 -49.45647424 55.80030763 C-55.10005245 55.73329327 -55.10005245 55.73329327 -57.66497898 53.46494484 C-59.11133763 50.14311565 -58.58710809 47.12541049 -58.05615234 43.6496582 C-57.95391357 42.93543701 -57.8516748 42.22121582 -57.74633789 41.48535156 C-55.52538914 27.31899713 -48.12555716 16.77509333 -36.61865234 8.2746582 C-24.87502905 1.02927639 -13.56147296 -0.02751452 0 0 Z " fill="#395469" transform="translate(201.61865234375,417.725341796875)"/>
<path d="M0 0 C0.81240143 0.0023616 1.62480286 0.00472321 2.46182251 0.00715637 C3.39216812 0.01171089 3.39216812 0.01171089 4.34130859 0.01635742 C6.42795587 14.72253083 7.80757035 29.43290784 8.59130859 44.26635742 C8.67862244 45.90718355 8.67862244 45.90718355 8.7677002 47.58115768 C10.05933537 75.07212439 8.031721 97.41272008 -10.79931641 118.59838867 C-16.753339 125.12580688 -23.08523216 131.18120692 -29.65869141 137.07885742 C-30.47182297 137.80895523 -31.28495453 138.53905304 -32.12272644 139.29127502 C-42.27557274 148.33440316 -52.76823108 156.8794744 -63.65869141 165.01635742 C-67.58826843 163.70649841 -69.04193048 161.2696135 -71.34619141 158.01635742 C-71.78463379 157.39768799 -72.22307617 156.77901855 -72.67480469 156.14160156 C-88.4457284 133.13685981 -93.91417604 103.96572993 -88.82275391 76.53979492 C-83.26305731 53.03135436 -67.64657351 29.83348826 -47.36572266 16.62963867 C-32.98397702 8.05869935 -17.15965436 -0.06465509 0 0 Z " fill="#5C9CED" transform="translate(337.65869140625,76.983642578125)"/>
<path d="M0 0 C2.53649965 -0.02038865 5.07283234 -0.03519611 7.609375 -0.046875 C8.32013184 -0.05315918 9.03088867 -0.05944336 9.76318359 -0.06591797 C30.64050404 -0.13782608 51.02346403 8.85534633 67 22 C67.98613281 22.81082031 68.97226562 23.62164062 69.98828125 24.45703125 C87.51935578 39.41755064 99.9555842 62.07792672 103 85 C103.11383059 88.12650277 103.09492761 91.24698305 103.0625 94.375 C103.05798828 95.20644531 103.05347656 96.03789062 103.04882812 96.89453125 C103.03713164 98.92971897 103.01919935 100.96486923 103 103 C89.86579187 103.04626236 76.73160299 103.08183809 63.59733009 103.10362434 C57.49910233 103.11407861 51.40093014 103.12826772 45.30273438 103.15087891 C39.42186306 103.17254877 33.54104533 103.18455623 27.66013718 103.18975449 C25.41216564 103.1934608 23.16419715 103.20069788 20.91624832 103.21146011 C17.77694521 103.2258972 14.63786591 103.22798121 11.49853516 103.22705078 C10.56130112 103.23424133 9.62406708 103.24143188 8.65843201 103.24884033 C7.80585312 103.246091 6.95327423 103.24334167 6.07485962 103.24050903 C5.33189447 103.24235262 4.58892933 103.24419621 3.82345009 103.24609566 C2 103 2 103 0 101 C-0.24609566 99.17654991 -0.24609566 99.17654991 -0.24050903 96.92514038 C-0.24325836 96.07256149 -0.24600769 95.2199826 -0.24884033 94.34156799 C-0.24164978 93.40433395 -0.23445923 92.46709991 -0.22705078 91.50146484 C-0.22734283 90.51606216 -0.22763489 89.53065948 -0.22793579 88.51539612 C-0.22653864 85.24715472 -0.21095927 81.97913924 -0.1953125 78.7109375 C-0.19158374 76.44935226 -0.18873612 74.18776541 -0.18673706 71.92617798 C-0.17908981 65.96504276 -0.15943194 60.00400453 -0.1373291 54.04290771 C-0.11689417 47.96351433 -0.10774038 41.88410531 -0.09765625 35.8046875 C-0.07618709 23.86974898 -0.042038 11.93488255 0 0 Z " fill="#FEC108" transform="translate(342,77)"/>
<path d="M0 0 C1.24652847 -0.00701431 2.49305695 -0.01402863 3.77735901 -0.02125549 C5.16118019 -0.01382761 6.54499978 -0.00609645 7.92881775 0.00190735 C9.3841274 -0.00052023 10.83943539 -0.00423923 12.29473877 -0.00915527 C16.24920357 -0.01857174 20.2034212 -0.00913306 24.15786672 0.00417686 C28.29159544 0.01547887 32.42531178 0.01138487 36.55905151 0.00942993 C43.50038196 0.00854666 50.44161479 0.01963511 57.38291931 0.03804016 C65.41559683 0.05921664 73.44813142 0.06271611 81.48083121 0.0564782 C89.1999622 0.05079005 96.91904271 0.05642317 104.63816643 0.06765175 C107.92721424 0.07230418 111.21623124 0.07316883 114.50528145 0.0710659 C118.3753453 0.06918674 122.24526298 0.07725799 126.1152935 0.0931263 C127.53833792 0.09738036 128.96139713 0.0982122 130.38444519 0.0954361 C132.32132631 0.09222996 134.25821601 0.10249208 136.19506836 0.11352539 C137.28073121 0.11557826 138.36639406 0.11763113 139.48495579 0.11974621 C142.03404236 0.3742218 142.03404236 0.3742218 144.03404236 2.3742218 C144.28800964 4.49946594 144.28800964 4.49946594 144.29283142 7.15937805 C144.29913574 8.1538092 144.30544006 9.14824036 144.31193542 10.17280579 C144.30586273 11.78844421 144.30586273 11.78844421 144.29966736 13.4367218 C144.30158081 14.53895081 144.30349426 15.64117981 144.3054657 16.77680969 C144.30682848 19.11038948 144.30312558 21.44397683 144.29478455 23.77754211 C144.28408657 27.35942027 144.29467694 30.94079684 144.30747986 34.5226593 C144.30615828 36.78568125 144.30359592 39.04870288 144.29966736 41.3117218 C144.30371582 42.38881409 144.30776428 43.46590637 144.31193542 44.57563782 C144.30247894 46.06728455 144.30247894 46.06728455 144.29283142 47.58906555 C144.29124023 48.46683655 144.28964905 49.34460754 144.28800964 50.24897766 C144.03404236 52.3742218 144.03404236 52.3742218 142.03404236 54.3742218 C139.48495579 54.6286974 139.48495579 54.6286974 136.19506836 54.63491821 C134.95135971 54.64200302 133.70765106 54.64908783 132.42625427 54.65638733 C131.04038965 54.6540933 129.65452538 54.65158357 128.2686615 54.64888 C126.81512184 54.65322523 125.36158447 54.65840774 123.90805054 54.66436768 C119.95352252 54.67778962 115.99908988 54.6783328 112.0445435 54.67580438 C108.74668746 54.67473679 105.44885089 54.6796126 102.15099901 54.6844098 C94.37249678 54.69551611 86.59404283 54.69593614 78.8155365 54.68989563 C70.78343967 54.68385422 62.75151795 54.69616846 54.71945101 54.7174657 C47.83023746 54.73506287 40.94107974 54.74108603 34.05184454 54.73782796 C29.93421416 54.73601188 25.81670868 54.7386834 21.69909859 54.7525425 C17.82737051 54.76508564 13.95591598 54.76321037 10.08419228 54.75013161 C8.66156168 54.74775854 7.23891204 54.75052657 5.81630325 54.75875473 C3.87756038 54.76916125 1.9387401 54.75935304 0 54.7484436 C-1.08603988 54.74861135 -2.17207975 54.74877909 -3.29102993 54.74895191 C-5.96595764 54.3742218 -5.96595764 54.3742218 -7.81502056 52.98601055 C-9.37325514 50.80383656 -9.34652957 49.34429049 -9.35414124 46.67500305 C-9.36359772 45.72391663 -9.3730542 44.7728302 -9.38279724 43.79292297 C-9.37672455 42.76787659 -9.37065186 41.7428302 -9.36439514 40.6867218 C-9.36726532 39.63267151 -9.3701355 38.57862122 -9.37309265 37.49263 C-9.37513477 35.2633765 -9.36959463 33.03410513 -9.35707092 30.80488586 C-9.34101995 27.38748712 -9.35691523 23.97127115 -9.37611389 20.5539093 C-9.37413149 18.38984418 -9.37028787 16.2257798 -9.36439514 14.0617218 C-9.37046783 13.03667542 -9.37654053 12.01162903 -9.38279724 10.95552063 C-9.36861252 9.52889099 -9.36861252 9.52889099 -9.35414124 8.07344055 C-9.35175446 7.23643616 -9.34936768 6.39943176 -9.34690857 5.5370636 C-8.40643599 0.19754805 -4.8023414 -0.00074173 0 0 Z " fill="#77BEDD" transform="translate(75.96595764160156,76.62577819824219)"/>
<path d="M0 0 C0.73511307 0.00359528 1.47022614 0.00719055 2.22761536 0.01089478 C2.99829346 0.01074875 3.76897156 0.01060272 4.56300354 0.01045227 C7.12237823 0.01115157 9.68168104 0.01894471 12.24104309 0.02676392 C14.01081299 0.02862804 15.7805834 0.03005197 17.550354 0.03105164 C22.2176505 0.03487728 26.88491607 0.04470796 31.55220032 0.05575562 C36.31110719 0.06596873 41.07001905 0.07054904 45.82893372 0.07559204 C55.17334837 0.08633019 64.51774004 0.10340717 73.86213684 0.12442017 C79.4916914 10.76836808 85.09918166 21.41811793 90.48713684 32.18692017 C91.0143634 33.2291272 91.54158997 34.27133423 92.08479309 35.34512329 C92.82922668 36.83109009 92.82922668 36.83109009 93.58869934 38.34707642 C94.02778625 39.22114136 94.46687317 40.0952063 94.91926575 40.99575806 C95.86213684 43.12442017 95.86213684 43.12442017 95.86213684 45.12442017 C55.27213684 45.12442017 14.68213684 45.12442017 -27.13786316 45.12442017 C-25.90449607 41.42431889 -24.88055497 38.35955311 -23.18254089 34.97085571 C-22.80552536 34.21374802 -22.42850983 33.45664032 -22.04006958 32.67658997 C-21.43685631 31.4809417 -21.43685631 31.4809417 -20.82145691 30.26113892 C-20.40493362 29.42855057 -19.98841034 28.59596222 -19.55926514 27.73814392 C-18.68282134 25.98826526 -17.80444318 24.23935426 -16.92424011 22.49136353 C-15.57218069 19.80559842 -14.22662816 17.11664844 -12.88200378 14.42715454 C-12.02886687 12.72579271 -11.17536417 11.02461424 -10.32145691 9.32363892 C-9.71520729 8.11280891 -9.71520729 8.11280891 -9.09671021 6.8775177 C-5.63422214 0.01162775 -5.63422214 0.01162775 0 0 Z " fill="#C3CDD2" transform="translate(222.1378631591797,373.8755798339844)"/>
<path d="M0 0 C1.86773071 -0.00639748 1.86773071 -0.00639748 3.77319336 -0.01292419 C5.16064456 -0.01257465 6.54809574 -0.01211311 7.93554688 -0.0115509 C9.39070726 -0.01454167 10.84586685 -0.01794401 12.30102539 -0.02172852 C16.25959691 -0.03058004 20.21814683 -0.03290708 24.17672729 -0.0335443 C27.47715739 -0.03449235 30.77758241 -0.03816935 34.07801056 -0.0417164 C41.86125443 -0.04986497 49.64448673 -0.05230023 57.42773438 -0.05158997 C65.46776328 -0.05098873 73.50772518 -0.06154876 81.54773712 -0.07733363 C88.44202237 -0.09038884 95.33628567 -0.09577473 102.23058319 -0.09513456 C106.35206963 -0.09487902 110.47349653 -0.09776099 114.5949707 -0.10831261 C118.46910298 -0.11795997 122.34311836 -0.11809606 126.21725464 -0.11079597 C127.64191864 -0.109746 129.06658979 -0.11213734 130.49124146 -0.11815643 C132.43034435 -0.12582073 134.36948671 -0.12005757 136.30859375 -0.11352539 C137.39555542 -0.11407016 138.48251709 -0.11461493 139.60241699 -0.1151762 C142.15429688 0.13371277 142.15429688 0.13371277 144.15429688 2.13371277 C144.46679688 4.63371277 144.46679688 4.63371277 144.15429688 7.13371277 C140.67351886 9.45423144 139.33509947 9.38480776 135.2263031 9.38768005 C133.98818878 9.3933197 132.75007446 9.39895935 131.47444153 9.4047699 C130.10006656 9.4008812 128.72569216 9.39678486 127.35131836 9.39250183 C125.90586165 9.39521147 124.46040632 9.39877224 123.01495361 9.40312195 C119.08740193 9.4122507 115.15995516 9.40869993 111.23240161 9.40236378 C107.12669764 9.39730727 103.02100277 9.40199417 98.91529846 9.40513611 C92.0210712 9.40877636 85.12688677 9.40397467 78.23266602 9.39445496 C70.25452541 9.38356597 62.27648698 9.38709895 54.29834884 9.39810777 C47.45499273 9.40717382 40.61166744 9.4084694 33.76830727 9.40323043 C29.67814175 9.40010752 25.58802432 9.39971024 21.49786186 9.40630341 C17.65407382 9.4120665 13.810418 9.40809913 9.96664429 9.39651489 C8.55327131 9.39386291 7.13988726 9.39464252 5.72651863 9.39904022 C3.80278537 9.4044756 1.87902789 9.39646266 -0.04469299 9.38768005 C-1.1229815 9.386926 -2.20127001 9.38617195 -3.31223392 9.38539505 C-5.84570312 9.13371277 -5.84570312 9.13371277 -7.84570312 7.13371277 C-7.97070312 4.00871277 -7.97070312 4.00871277 -7.84570312 1.13371277 C-5.13958206 -0.21934776 -3.03100401 0.00467311 0 0 Z " fill="#535353" transform="translate(75.845703125,265.8662872314453)"/>
<path d="M0 0 C1.86773071 -0.00639748 1.86773071 -0.00639748 3.77319336 -0.01292419 C5.16064456 -0.01257465 6.54809574 -0.01211311 7.93554688 -0.0115509 C9.39070726 -0.01454167 10.84586685 -0.01794401 12.30102539 -0.02172852 C16.25959691 -0.03058004 20.21814683 -0.03290708 24.17672729 -0.0335443 C27.47715739 -0.03449235 30.77758241 -0.03816935 34.07801056 -0.0417164 C41.86125443 -0.04986497 49.64448673 -0.05230023 57.42773438 -0.05158997 C65.46776328 -0.05098873 73.50772518 -0.06154876 81.54773712 -0.07733363 C88.44202237 -0.09038884 95.33628567 -0.09577473 102.23058319 -0.09513456 C106.35206963 -0.09487902 110.47349653 -0.09776099 114.5949707 -0.10831261 C118.46910298 -0.11795997 122.34311836 -0.11809606 126.21725464 -0.11079597 C127.64191864 -0.109746 129.06658979 -0.11213734 130.49124146 -0.11815643 C132.43034435 -0.12582073 134.36948671 -0.12005757 136.30859375 -0.11352539 C137.39555542 -0.11407016 138.48251709 -0.11461493 139.60241699 -0.1151762 C142.15429688 0.13371277 142.15429688 0.13371277 144.15429688 2.13371277 C144.46679688 4.63371277 144.46679688 4.63371277 144.15429688 7.13371277 C140.67351886 9.45423144 139.33509947 9.38480776 135.2263031 9.38768005 C133.98818878 9.3933197 132.75007446 9.39895935 131.47444153 9.4047699 C130.10006656 9.4008812 128.72569216 9.39678486 127.35131836 9.39250183 C125.90586165 9.39521147 124.46040632 9.39877224 123.01495361 9.40312195 C119.08740193 9.4122507 115.15995516 9.40869993 111.23240161 9.40236378 C107.12669764 9.39730727 103.02100277 9.40199417 98.91529846 9.40513611 C92.0210712 9.40877636 85.12688677 9.40397467 78.23266602 9.39445496 C70.25452541 9.38356597 62.27648698 9.38709895 54.29834884 9.39810777 C47.45499273 9.40717382 40.61166744 9.4084694 33.76830727 9.40323043 C29.67814175 9.40010752 25.58802432 9.39971024 21.49786186 9.40630341 C17.65407382 9.4120665 13.810418 9.40809913 9.96664429 9.39651489 C8.55327131 9.39386291 7.13988726 9.39464252 5.72651863 9.39904022 C3.80278537 9.4044756 1.87902789 9.39646266 -0.04469299 9.38768005 C-1.1229815 9.386926 -2.20127001 9.38617195 -3.31223392 9.38539505 C-5.84570312 9.13371277 -5.84570312 9.13371277 -7.84570312 7.13371277 C-7.97070312 4.00871277 -7.97070312 4.00871277 -7.84570312 1.13371277 C-5.13958206 -0.21934776 -3.03100401 0.00467311 0 0 Z " fill="#535353" transform="translate(75.845703125,229.8662872314453)"/>
<path d="M0 0 C1.24515381 -0.00563965 2.49030762 -0.0112793 3.77319336 -0.01708984 C5.16064511 -0.01320089 6.54809629 -0.00910453 7.93554688 -0.00482178 C9.39070816 -0.0075306 10.84586808 -0.01109091 12.30102539 -0.01544189 C16.25962671 -0.02458119 20.2181241 -0.02101534 24.17672729 -0.01468372 C28.31313362 -0.00963168 32.44953084 -0.01431295 36.5859375 -0.01745605 C43.53321943 -0.02109803 50.48045889 -0.01629056 57.42773438 -0.0067749 C65.46776992 0.0041101 73.50770404 0.00058469 81.54773712 -0.01042771 C88.442028 -0.01949402 95.33628828 -0.02078909 102.23058319 -0.01555037 C106.35206261 -0.01242705 110.47349432 -0.01203123 114.5949707 -0.01862335 C118.46911381 -0.02438667 122.34312575 -0.02041865 126.21725464 -0.00883484 C127.64191469 -0.0061828 129.06658572 -0.00696258 130.49124146 -0.01136017 C132.43035497 -0.01679541 134.36949251 -0.00878273 136.30859375 0 C137.93903625 0.00113108 137.93903625 0.00113108 139.60241699 0.002285 C142.15429688 0.25396729 142.15429688 0.25396729 144.15429688 2.25396729 C144.46679688 4.75396729 144.46679688 4.75396729 144.15429688 7.25396729 C140.67351886 9.57448596 139.33509947 9.50506228 135.2263031 9.50793457 C133.98818878 9.51357422 132.75007446 9.51921387 131.47444153 9.52502441 C130.10006656 9.52113572 128.72569216 9.51703938 127.35131836 9.51275635 C125.90586165 9.51546598 124.46040632 9.51902676 123.01495361 9.52337646 C119.08740193 9.53250522 115.15995516 9.52895444 111.23240161 9.52261829 C107.12669764 9.51756179 103.02100277 9.52224868 98.91529846 9.52539062 C92.0210712 9.52903088 85.12688677 9.52422919 78.23266602 9.51470947 C70.25452541 9.50382049 62.27648698 9.50735346 54.29834884 9.51836228 C47.45499273 9.52742833 40.61166744 9.52872392 33.76830727 9.52348495 C29.67814175 9.52036203 25.58802432 9.51996476 21.49786186 9.52655792 C17.65407382 9.53232102 13.810418 9.52835365 9.96664429 9.51676941 C8.55327131 9.51411743 7.13988726 9.51489704 5.72651863 9.51929474 C3.80278537 9.52473011 1.87902789 9.51671718 -0.04469299 9.50793457 C-1.1229815 9.50718052 -2.20127001 9.50642647 -3.31223392 9.50564957 C-5.84570312 9.25396729 -5.84570312 9.25396729 -7.84570312 7.25396729 C-8.09570312 4.75396729 -8.09570312 4.75396729 -7.84570312 2.25396729 C-5.14676862 -0.44496722 -3.7759736 0.00261948 0 0 Z " fill="#525252" transform="translate(75.845703125,193.74603271484375)"/>
<path d="M0 0 C1.24515381 -0.00563965 2.49030762 -0.0112793 3.77319336 -0.01708984 C5.16064511 -0.01320089 6.54809629 -0.00910453 7.93554688 -0.00482178 C9.39070816 -0.0075306 10.84586808 -0.01109091 12.30102539 -0.01544189 C16.25962671 -0.02458119 20.2181241 -0.02101534 24.17672729 -0.01468372 C28.31313362 -0.00963168 32.44953084 -0.01431295 36.5859375 -0.01745605 C43.53321943 -0.02109803 50.48045889 -0.01629056 57.42773438 -0.0067749 C65.46776992 0.0041101 73.50770404 0.00058469 81.54773712 -0.01042771 C88.442028 -0.01949402 95.33628828 -0.02078909 102.23058319 -0.01555037 C106.35206261 -0.01242705 110.47349432 -0.01203123 114.5949707 -0.01862335 C118.46911381 -0.02438667 122.34312575 -0.02041865 126.21725464 -0.00883484 C127.64191469 -0.0061828 129.06658572 -0.00696258 130.49124146 -0.01136017 C132.43035497 -0.01679541 134.36949251 -0.00878273 136.30859375 0 C137.93903625 0.00113108 137.93903625 0.00113108 139.60241699 0.002285 C142.15429688 0.25396729 142.15429688 0.25396729 144.15429688 2.25396729 C144.46679688 4.75396729 144.46679688 4.75396729 144.15429688 7.25396729 C140.67351886 9.57448596 139.33509947 9.50506228 135.2263031 9.50793457 C133.98818878 9.51357422 132.75007446 9.51921387 131.47444153 9.52502441 C130.10006656 9.52113572 128.72569216 9.51703938 127.35131836 9.51275635 C125.90586165 9.51546598 124.46040632 9.51902676 123.01495361 9.52337646 C119.08740193 9.53250522 115.15995516 9.52895444 111.23240161 9.52261829 C107.12669764 9.51756179 103.02100277 9.52224868 98.91529846 9.52539062 C92.0210712 9.52903088 85.12688677 9.52422919 78.23266602 9.51470947 C70.25452541 9.50382049 62.27648698 9.50735346 54.29834884 9.51836228 C47.45499273 9.52742833 40.61166744 9.52872392 33.76830727 9.52348495 C29.67814175 9.52036203 25.58802432 9.51996476 21.49786186 9.52655792 C17.65407382 9.53232102 13.810418 9.52835365 9.96664429 9.51676941 C8.55327131 9.51411743 7.13988726 9.51489704 5.72651863 9.51929474 C3.80278537 9.52473011 1.87902789 9.51671718 -0.04469299 9.50793457 C-1.1229815 9.50718052 -2.20127001 9.50642647 -3.31223392 9.50564957 C-5.84570312 9.25396729 -5.84570312 9.25396729 -7.84570312 7.25396729 C-8.09570312 4.75396729 -8.09570312 4.75396729 -7.84570312 2.25396729 C-5.14676862 -0.44496722 -3.7759736 0.00261948 0 0 Z " fill="#525252" transform="translate(75.845703125,157.74603271484375)"/>
</svg>
